<?xml version="1.0" standalone="no"?>
<!DOCTYPE svg PUBLIC "-//W3C//DTD SVG 20010904//EN"
 "http://www.w3.org/TR/2001/REC-SVG-20010904/DTD/svg10.dtd">
<svg version="1.0" xmlns="http://www.w3.org/2000/svg"
 width="225.000000pt" height="225.000000pt" viewBox="0 0 225.000000 225.000000"
 preserveAspectRatio="xMidYMid meet">
<metadata>
Created by potrace 1.10, written by Peter Selinger 2001-2011
</metadata>
<g transform="translate(0.000000,225.000000) scale(0.100000,-0.100000)"
fill="#000000" stroke="none">
<path d="M1440 1691 c-83 -26 -159 -90 -201 -171 -24 -44 -24 -52 -29 -384
l-5 -338 53 4 c100 9 175 90 189 206 l6 52 58 0 59 0 0 120 0 120 -60 0 -60 0
0 55 c0 46 4 60 25 80 33 34 83 34 116 -1 23 -25 24 -32 29 -207 5 -174 6
-184 33 -239 39 -80 111 -142 194 -168 109 -33 103 -39 103 105 0 119 -1 125
-20 125 -12 0 -32 11 -45 25 -20 19 -25 34 -25 75 l0 50 40 0 40 0 0 126 0
127 -45 -5 c-34 -4 -45 -2 -45 8 0 32 -47 112 -92 156 -62 60 -135 88 -226 87
-37 0 -78 -4 -92 -8z m223 -35 c69 -33 109 -70 101 -93 -4 -13 -3 -15 4 -5 7
11 14 6 30 -20 11 -18 27 -50 35 -70 13 -30 21 -37 49 -40 l33 -3 1 -87 1 -88
-26 -1 c-21 -1 -22 -2 -6 -6 36 -9 41 -23 8 -23 -37 0 -42 -6 -47 -57 -5 -51
16 -100 54 -121 l30 -17 0 -101 0 -102 -37 5 c-91 12 -181 76 -223 160 -23 44
-25 62 -30 233 -6 204 -11 226 -68 249 -33 14 -112 -1 -112 -20 0 -6 -4 -7
-10 -4 -5 3 -7 0 -4 -8 3 -8 1 -18 -5 -22 -6 -3 -11 -31 -11 -60 0 -63 13 -75
79 -75 l41 0 2 -75 c0 -41 1 -87 2 -102 1 -25 -2 -27 -47 -29 -27 -1 -54 -5
-61 -7 -7 -3 -16 -31 -20 -63 -4 -34 -17 -77 -32 -102 -21 -35 -29 -42 -47
-37 -16 5 -18 4 -8 -3 18 -13 -10 -29 -67 -38 -38 -6 -42 -4 -47 19 -4 13 -5
157 -3 318 3 251 6 299 21 332 10 20 22 37 27 37 5 0 6 7 3 17 -4 10 -2 14 4
10 6 -4 13 3 16 14 3 11 15 23 26 26 11 3 19 9 16 13 -7 11 56 49 108 66 59
19 157 10 220 -20z"/>
<path d="M1381 934 c0 -11 3 -14 6 -6 3 7 2 16 -1 19 -3 4 -6 -2 -5 -13z"/>
<path d="M308 1320 c2 -412 4 -425 73 -484 66 -56 156 -67 233 -29 28 15 28
15 7 29 -12 9 -31 34 -44 57 -21 41 -22 53 -27 417 l-5 375 -120 0 -120 0 3
-365z m222 321 c0 -14 1 -177 3 -361 2 -360 3 -364 58 -434 14 -18 17 -27 8
-24 -7 2 -20 -1 -27 -9 -15 -14 -112 -18 -112 -4 0 8 -35 22 -44 18 -3 -1 -16
9 -30 22 -52 49 -56 83 -56 468 l0 354 100 -2 100 -1 0 -27z"/>
<path d="M600 1193 c4 -220 8 -263 22 -290 45 -82 170 -116 266 -73 23 10 42
15 42 11 0 -19 -55 -61 -87 -67 -38 -7 -128 -1 -156 11 -16 7 -17 0 -15 -106
l3 -114 70 -12 c84 -14 189 -2 252 28 58 28 116 95 142 163 20 54 21 74 21
381 l0 325 -120 0 -120 0 0 -188 c0 -133 -4 -192 -12 -200 -17 -17 -55 -15
-62 4 -3 9 -6 99 -6 200 l0 184 -122 0 -123 0 5 -257z m224 49 c1 -170 2 -185
20 -198 25 -18 47 -18 72 0 18 13 19 28 20 198 l1 183 104 0 104 0 -3 -320 -3
-320 -32 -65 c-35 -71 -91 -121 -155 -140 -63 -19 -145 -23 -204 -11 -65 14
-65 14 -60 127 l4 72 36 -10 c81 -23 191 11 207 63 10 31 -10 47 -37 30 -34
-21 -136 -24 -185 -6 -24 9 -43 20 -43 24 0 4 -10 18 -21 30 -19 20 -23 41
-30 150 -9 127 -10 359 -1 374 2 5 49 7 105 5 l100 -3 1 -183z"/>
<path d="M951 1074 c0 -11 3 -14 6 -6 3 7 2 16 -1 19 -3 4 -6 -2 -5 -13z"/>
<path d="M705 740 c-3 -5 -1 -10 4 -10 6 0 11 5 11 10 0 6 -2 10 -4 10 -3 0
-8 -4 -11 -10z"/>
</g>
</svg>
